<svg class="canvas" viewBox="0 0 1920 1080" preserveAspectRatio="xMaxYMid slice" xmlns="http://www.w3.org/2000/svg" version="1.1" xmlns:xlink="http://www.w3.org/1999/xlink" xmlns:svgjs="http://svgjs.com/svgjs"><rect width="1920" height="1080" fill="hsl(198, 65%, 15%)"></rect><defs><linearGradient x1="0.5" y1="0" x2="0" y2="1" id="SvgjsLinearGradient1063"><stop stop-color="#288a6d" offset="0"></stop><stop stop-color="#060a14" offset="0.1"></stop></linearGradient><linearGradient x1="0.5" y1="0" x2="0" y2="1" id="SvgjsLinearGradient1064"><stop stop-color="#288a81" offset="0"></stop><stop stop-color="#060714" offset="0.22857142857142856"></stop></linearGradient><linearGradient x1="0.5" y1="0" x2="0" y2="1" id="SvgjsLinearGradient1065"><stop stop-color="#288a6d" offset="0"></stop><stop stop-color="#060a14" offset="0.3571428571428571"></stop></linearGradient><linearGradient x1="0.5" y1="0" x2="0" y2="1" id="SvgjsLinearGradient1066"><stop stop-color="#c0edf2" offset="0"></stop><stop stop-color="#5142d7" offset="0.48571428571428565"></stop></linearGradient><linearGradient x1="0.5" y1="0" x2="0" y2="1" id="SvgjsLinearGradient1067"><stop stop-color="#c0f2e3" offset="0"></stop><stop stop-color="#426ed7" offset="0.6142857142857142"></stop></linearGradient><linearGradient x1="0.5" y1="0" x2="0" y2="1" id="SvgjsLinearGradient1068"><stop stop-color="#c0f2e3" offset="0"></stop><stop stop-color="#426ed7" offset="0.7428571428571429"></stop></linearGradient><linearGradient x1="0.5" y1="0" x2="0" y2="1" id="SvgjsLinearGradient1069"><stop stop-color="#c0edf2" offset="0"></stop><stop stop-color="#5142d7" offset="0.8714285714285713"></stop></linearGradient></defs><path d="M0,-574.5148292017142C52.76907271905767,-564.4720663462858,210.25407698455723,-542.9148095956663,316.614436314346,-514.2582520691441C422.97479564413476,-485.6016945426219,533.7500262490535,-431.51061012712654,638.1621559787327,-402.57548404258085C742.5742857084119,-373.64035795803517,832.0464803072329,-371.7192474797139,943.0872146924211,-340.6474955618699C1054.1279490776094,-309.5757436440259,1193.7653213384754,-249.9763257279967,1304.4065622898622,-216.14497253551707C1415.047803241249,-182.31361934303743,1504.3357541157188,-167.93106696262586,1606.9346604007417,-137.65937640699207C1709.5335666857645,-107.38768585135826,1867.8224434001236,-51.70558706926053,1920,-34.51482920171422L 1920 1080 L 0 1080 Z" fill="url(#SvgjsLinearGradient1063)"></path><path d="M0,-386.1129524586407C77.3709992304546,-366.0162926666295,302.7276656088036,-306.2784792227842,464.2259953827276,-265.5329937065736C625.7243251566516,-224.78750819036304,812.4800364327505,-199.59563723236124,968.989978643544,-141.64003936137726C1125.4999208543375,-83.68444149039328,1244.7839784214125,30.565126654588404,1403.2856486474884,82.20059351933023C1561.7873188735643,133.83606038407206,1833.880941441248,153.84406710911642,1920,168.17276182707366L 1920 1080 L 0 1080 Z" fill="url(#SvgjsLinearGradient1064)"></path><path d="M0,-240.77796607543712C61.57922381747617,-227.44608467235238,246.4573995927828,-193.21866145717993,369.47534290485703,-160.78667765692865C492.49328621693127,-128.35469385667736,606.224512121483,-84.65324380578068,738.1076598724453,-46.18606327392944C869.9908076234076,-7.718882742078208,1022.6410921509623,31.660594678203616,1160.7742294106306,70.01640553417874C1298.9073666702989,108.37221639015388,1440.3688549988935,140.98595903495251,1566.9064834304552,183.9488018619213C1693.4441118620168,226.9116446888901,1861.1510805717426,303.81935239031316,1920,327.7934624959915L 1920 1080 L 0 1080 Z" fill="url(#SvgjsLinearGradient1065)"></path><path d="M0,-107.70483887735489C63.57947518256329,-94.34572180915976,249.74027265828587,-62.79852258092665,381.47685109537974,-27.550136468184093C513.2134295324736,7.698249644558466,658.3359144510241,60.411978463502116,790.4194706225633,103.78547779910045C922.5030267941024,147.15897713469877,1049.480845901703,185.28036615630856,1173.9781881246145,232.6908595454059C1298.4755303475258,280.10135293450327,1413.0665553141337,347.8381973946209,1537.4035239600312,388.2484381336846C1661.7404926059287,428.6586788727483,1856.2339206600052,460.6683263387708,1920,475.15230397978803L 1920 1080 L 0 1080 Z" fill="url(#SvgjsLinearGradient1066)"></path><path d="M0,-67.32380814274458C42.07175494231534,-45.064938417292765,154.17209178806223,42.061843984801314,252.43052965389202,66.22941020996633C350.6889675197218,90.39697643513135,487.980004763642,56.8771644538408,589.5506271949787,77.68158920824553C691.1212496263154,98.48601396265025,783.7422842026995,151.1267279316369,861.8542642419122,191.0559587363947C939.966244281125,230.9851895411525,973.6078338604333,282.4339321274247,1058.222507430255,317.25697403679226C1142.8371810000767,352.0800159461598,1268.6384174413276,386.7279986912465,1369.5423056608427,399.99421019259995C1470.4461938803577,413.2604216939534,1571.9028876908185,375.2167699103273,1663.6458367473447,396.8542430449127C1755.3887858038709,418.49171617949816,1877.2743061245574,507.6582480075793,1920,529.8190490001126L 1920 1080 L 0 1080 Z" fill="url(#SvgjsLinearGradient1067)"></path><path d="M0,56.65697045799751C46.03202590003543,63.22453054405695,187.4161646932489,60.03452511036163,276.1921554002126,96.06233097435413C364.96814610717627,132.0901368383466,442.3866492605637,241.69852723035427,532.6559442417822,272.8238056419525C622.9252392230007,303.94908405355073,727.3327680675332,260.5429288041304,817.8079252875237,282.8140014439435C908.2830825075143,305.0850740837566,988.5764490915532,372.54906506183784,1075.5068875617258,406.450241480831C1162.4373260318982,440.3514178998241,1250.3060976559686,454.3055147537955,1339.3905561085592,486.2210599579024C1428.4750145611497,518.1366051620093,1513.245397628695,567.6327657173616,1610.0136382772685,597.9435127054727C1706.781878925842,628.2542596935838,1868.3356063795447,656.3952036897197,1920,668.085541886569L 1920 1080 L 0 1080 Z" fill="url(#SvgjsLinearGradient1068)"></path><path d="M0,193.19626366880402C72.61469668538743,223.84878628998416,267.8848025552769,317.5134403873227,435.6881801123246,377.11139939588486C603.4915576693722,436.709358404447,840.4913086019568,506.561703099126,1006.8202653422861,550.7840177201771C1173.1492220826153,595.0063323412281,1281.4652981113481,597.757531845039,1433.6619205543004,642.4452871221912C1585.8585429972527,687.1330423993434,1838.9436534257168,789.4996723396067,1920,818.9105493830898L 1920 1080 L 0 1080 Z" fill="url(#SvgjsLinearGradient1069)"></path></svg>